<svg xmlns="http://www.w3.org/2000/svg" fill="none" viewBox="0 0 64 64"><path fill="#000" d="M32 1C14.88 1 1 14.88 1 32c0 17.12 13.88 31 31 31 17.12 0 31-13.88 31-31C63 14.88 49.12 1 32 1zm0 6c13.816 0 25 11.181 25 25 0 13.816-11.181 25-25 25C18.183 57 7 45.819 7 32 7 18.183 18.181 7 32 7zm17.526 16.283l-2.818-2.84a1.5 1.5 0 00-2.12-.008l-17.67 17.527-7.474-7.535a1.5 1.5 0 00-2.121-.008l-2.84 2.817a1.5 1.5 0 00-.008 2.121l11.347 11.44a1.5 1.5 0 002.122.008l21.573-21.4a1.5 1.5 0 00.008-2.122z"/></svg>