<svg xmlns="http://www.w3.org/2000/svg" fill="none" viewBox="0 0 56 64"><path fill="#000" d="M52 4H3.987C1.787 4 0 5.813 0 8.037v47.925C0 58.188 1.788 60 3.987 60H52c2.2 0 4-1.813 4-4.038V8.038C56 5.813 54.2 4 52 4zM16.925 52h-8.3V25.275h8.313V52h-.013zm-4.15-30.375a4.815 4.815 0 01-4.813-4.813c0-2.65 2.15-4.812 4.813-4.812a4.823 4.823 0 014.812 4.813 4.807 4.807 0 01-4.812 4.812zM48.038 52h-8.3V39c0-3.1-.063-7.087-4.313-7.087-4.325 0-4.987 3.375-4.987 6.862V52h-8.3V25.275H30.1v3.65h.112c1.113-2.1 3.826-4.313 7.863-4.313 8.4 0 9.962 5.538 9.962 12.738V52z"/></svg>