<svg xmlns="http://www.w3.org/2000/svg" fill="none" viewBox="0 0 62 64"><path fill="#000" d="M62 32c0 17.125-13.875 31-31 31-3.2 0-6.275-.487-9.175-1.388 1.262-2.062 3.15-5.437 3.85-8.125.375-1.45 1.925-7.375 1.925-7.375 1.012 1.925 3.962 3.563 7.1 3.563 9.35 0 16.087-8.6 16.087-19.287 0-10.238-8.362-17.9-19.112-17.9-13.375 0-20.488 8.974-20.488 18.762 0 4.55 2.426 10.212 6.288 12.013.587.275.9.15 1.037-.413.1-.425.625-2.538.863-3.513.075-.312.038-.587-.212-.887-1.263-1.563-2.288-4.413-2.288-7.075 0-6.837 5.175-13.45 14-13.45 7.612 0 12.95 5.188 12.95 12.613 0 8.387-4.238 14.2-9.75 14.2-3.038 0-5.325-2.513-4.588-5.6.876-3.688 2.563-7.663 2.563-10.325 0-2.375-1.275-4.363-3.925-4.363-3.113 0-5.613 3.213-5.613 7.525 0 2.75.925 4.6.925 4.6s-3.062 12.975-3.625 15.4c-.625 2.675-.375 6.45-.112 8.9C8.175 56.362 0 45.138 0 32 0 14.875 13.875 1 31 1s31 13.875 31 31z"/></svg>