<svg xmlns="http://www.w3.org/2000/svg" fill="none" viewBox="0 0 64 64"><g clip-path="url(#a)"><path fill="" d="M63.13 55.332L50.666 42.871a2.998 2.998 0 00-2.125-.875h-2.038a25.867 25.867 0 005.5-15.999C52.004 11.637 40.366 0 26.003 0 11.638 0 0 11.636 0 25.997 0 40.36 11.638 51.995 26.002 51.995c6.038 0 11.588-2.05 16.001-5.5v2.038c0 .8.313 1.562.875 2.125l12.464 12.46a2.988 2.988 0 004.237 0l3.538-3.536a3.013 3.013 0 00.013-4.25zM26.002 41.996C17.164 41.996 10 34.846 10 25.997 10 17.161 17.15 10 26 10c8.839 0 16.002 7.15 16.002 15.998 0 8.837-7.15 15.999-16.001 15.999z"/></g><defs><clipPath id="a"><path fill="#fff" d="M0 0h64v64H0z"/></clipPath></defs></svg>