<svg xmlns="http://www.w3.org/2000/svg" fill="none" viewBox="0 0 64 64"><path fill="#000" d="M58.284 35.836C59.38 33.98 60 32 60 29.606c0-5.502-4.652-10.697-10.727-10.697h-4.56c.614-1.601 1.106-3.516 1.106-5.818C45.819 3.992 41.107 0 33.91 0c-7.7 0-7.262 11.867-8.97 13.575-2.843 2.843-6.202 8.306-8.595 10.425H4a4 4 0 00-4 4v30a4 4 0 004 4h8a4.002 4.002 0 003.872-2.994C21.436 59.131 25.255 64 38.097 64l2.778.001c9.64 0 13.998-4.928 14.117-11.916 1.665-2.303 2.538-5.39 2.168-8.374a11.609 11.609 0 001.124-7.874zm-7.719 6.729c1.57 2.641.157 6.176-1.742 7.196C49.785 55.86 46.62 58 42.182 58h-4.728C28.5 57.999 22.701 53.27 16 53.27V30h1.365c3.545 0 8.498-8.861 11.818-12.183C32.727 14.273 31.546 8.364 33.91 6c5.909 0 5.909 4.123 5.909 7.091 0 4.897-3.545 7.09-3.545 11.818h12.998c2.64 0 4.717 2.364 4.728 4.727.011 2.363-1.602 4.726-2.784 4.726 1.686 1.82 2.047 5.655-.651 8.203zM11 54a3 3 0 11-6 0 3 3 0 016 0z"/></svg>