<svg xmlns="http://www.w3.org/2000/svg" fill="none" viewBox="0 0 64 64"><path fill="#000" d="M57.421 18.965c.04.568.04 1.137.04 1.705 0 17.34-13.197 37.32-37.319 37.32-7.431 0-14.335-2.153-20.142-5.888 1.056.121 2.071.162 3.167.162a26.269 26.269 0 0016.285-5.604c-5.767-.122-10.6-3.898-12.264-9.096.812.121 1.624.203 2.477.203 1.178 0 2.355-.163 3.452-.447-6.01-1.218-10.518-6.498-10.518-12.873v-.163a13.211 13.211 0 005.929 1.665A13.108 13.108 0 012.68 15.025c0-2.436.65-4.67 1.787-6.619a37.284 37.284 0 0027.046 13.726 14.807 14.807 0 01-.325-3.005c0-7.228 5.847-13.117 13.116-13.117 3.777 0 7.188 1.584 9.584 4.142a25.825 25.825 0 008.325-3.167 13.082 13.082 0 01-5.767 7.228c2.64-.284 5.199-1.015 7.554-2.03a28.194 28.194 0 01-6.579 6.782z"/></svg>